<svg width="64" height="64" viewBox="0 0 64 64" fill="none" xmlns="http://www.w3.org/2000/svg">
<path d="M32 53.76C19.968 53.76 10.24 44.032 10.24 32C10.24 19.968 19.968 10.24 32 10.24C44.032 10.24 53.76 19.968 53.76 32C53.76 44.032 44.032 53.76 32 53.76ZM32 12.8C21.376 12.8 12.8 21.376 12.8 32C12.8 42.624 21.376 51.2 32 51.2C42.624 51.2 51.2 42.624 51.2 32C51.2 21.376 42.624 12.8 32 12.8Z" fill="white"/>
<path d="M32.384 44.416L19.968 32L32.384 19.584L34.176 21.376L23.552 32L34.176 42.624L32.384 44.416Z" fill="white"/>
<path d="M21.76 30.72H43.52V33.28H21.76V30.72Z" fill="white"/>
</svg>
