<svg width="60" height="60" viewBox="0 0 60 60" fill="none" xmlns="http://www.w3.org/2000/svg">
<rect width="60" height="60" rx="12" fill="white"/>
<path d="M18.0045 28.8461C17.9902 28.6717 18.0103 28.496 18.0636 28.3303C18.1169 28.1645 18.2022 28.0123 18.3141 27.8833C18.4259 27.7542 18.562 27.6512 18.7135 27.5807C18.8651 27.5102 19.0289 27.4737 19.1945 27.4737H21.4758C21.7927 27.4737 22.0966 27.6068 22.3207 27.8437C22.5447 28.0805 22.6706 28.4018 22.6706 28.7368V40.7368C22.6706 41.0719 22.5447 41.3931 22.3207 41.63C22.0966 41.8669 21.7927 42 21.4758 42H20.1819C19.8829 42.0001 19.5947 41.8816 19.3743 41.668C19.1539 41.4543 19.0172 41.1611 18.9913 40.8461L18.0045 28.8461ZM26.2549 28.3421C26.2549 27.8141 26.5655 27.3417 27.0165 27.1168C28.0016 26.6255 29.6796 25.6383 30.4365 24.3038C31.412 22.5834 31.596 19.4754 31.6259 18.7636C31.6301 18.6638 31.6277 18.564 31.6402 18.4655C31.8021 17.232 34.0536 18.6726 34.9168 20.196C35.3858 21.0221 35.4455 22.1078 35.3965 22.956C35.3434 23.8629 35.0919 24.7389 34.8451 25.6093L34.3194 27.4642H40.8052C40.9898 27.4642 41.1719 27.5094 41.3371 27.5963C41.5024 27.6832 41.6464 27.8094 41.7578 27.965C41.8693 28.1206 41.9451 28.3014 41.9793 28.4931C42.0135 28.6849 42.0052 28.8825 41.9551 29.0703L38.7472 41.0804C38.6764 41.3453 38.5257 41.5785 38.318 41.7445C38.1103 41.9105 37.857 42.0002 37.5967 42H27.4496C27.1327 42 26.8289 41.8669 26.6048 41.63C26.3807 41.3931 26.2549 41.0719 26.2549 40.7368V28.3421Z" fill="#12182B"/>
</svg>
