<svg width="60" height="60" viewBox="0 0 60 60" fill="none" xmlns="http://www.w3.org/2000/svg">
<rect width="60" height="60" rx="12" fill="white"/>
<path d="M30 19.7872C30.4151 19.7872 30.8132 19.9068 31.1068 20.1196C31.4003 20.3324 31.5652 20.621 31.5652 20.922V39.078C31.5652 39.379 31.4003 39.6676 31.1068 39.8804C30.8132 40.0932 30.4151 40.2128 30 40.2128C29.5849 40.2128 29.1868 40.0932 28.8932 39.8804C28.5997 39.6676 28.4348 39.379 28.4348 39.078V20.922C28.4348 20.621 28.5997 20.3324 28.8932 20.1196C29.1868 19.9068 29.5849 19.7872 30 19.7872ZM19.5652 24.3262C19.9803 24.3262 20.3785 24.4458 20.672 24.6586C20.9655 24.8714 21.1304 25.16 21.1304 25.461V39.078C21.1304 39.379 20.9655 39.6676 20.672 39.8804C20.3785 40.0932 19.9803 40.2128 19.5652 40.2128C19.1501 40.2128 18.752 40.0932 18.4584 39.8804C18.1649 39.6676 18 39.379 18 39.078V25.461C18 25.16 18.1649 24.8714 18.4584 24.6586C18.752 24.4458 19.1501 24.3262 19.5652 24.3262ZM40.4348 30.3782C40.8499 30.3782 41.248 30.4978 41.5416 30.7106C41.8351 30.9234 42 31.212 42 31.513V39.078C42 39.379 41.8351 39.6676 41.5416 39.8804C41.248 40.0932 40.8499 40.2128 40.4348 40.2128C40.0197 40.2128 39.6215 40.0932 39.328 39.8804C39.0345 39.6676 38.8696 39.379 38.8696 39.078V31.513C38.8696 31.212 39.0345 30.9234 39.328 30.7106C39.6215 30.4978 40.0197 30.3782 40.4348 30.3782Z" fill="#12182B"/>
</svg>
