<svg width="766" height="40" viewBox="0 0 766 40" fill="none" xmlns="http://www.w3.org/2000/svg">
<path d="M18.5979 5.8541C19.1966 4.01148 21.8034 4.01148 22.4021 5.8541L24.5413 12.4377C24.809 13.2617 25.5769 13.8197 26.4434 13.8197H33.3658C35.3032 13.8197 36.1088 16.2989 34.5413 17.4377L28.941 21.5066C28.24 22.0159 27.9467 22.9186 28.2145 23.7426L30.3536 30.3262C30.9523 32.1689 28.8433 33.7011 27.2759 32.5623L21.6756 28.4934C20.9746 27.9841 20.0254 27.9841 19.3244 28.4934L13.7241 32.5623C12.1567 33.7011 10.0477 32.1689 10.6464 30.3262L12.7855 23.7426C13.0533 22.9186 12.76 22.0159 12.059 21.5066L6.45867 17.4377C4.89124 16.2989 5.69679 13.8197 7.63424 13.8197H14.5566C15.4231 13.8197 16.191 13.2617 16.4587 12.4377L18.5979 5.8541Z" fill="#FFC700"/>
<path d="M58.5979 5.8541C59.1966 4.01148 61.8034 4.01148 62.4021 5.8541L64.5413 12.4377C64.809 13.2617 65.5769 13.8197 66.4434 13.8197H73.3658C75.3032 13.8197 76.1088 16.2989 74.5413 17.4377L68.941 21.5066C68.24 22.0159 67.9467 22.9186 68.2145 23.7426L70.3536 30.3262C70.9523 32.1689 68.8433 33.7011 67.2759 32.5623L61.6756 28.4934C60.9746 27.9841 60.0254 27.9841 59.3244 28.4934L53.7241 32.5623C52.1567 33.7011 50.0477 32.1689 50.6464 30.3262L52.7855 23.7426C53.0533 22.9186 52.76 22.0159 52.059 21.5066L46.4587 17.4377C44.8912 16.2989 45.6968 13.8197 47.6342 13.8197H54.5566C55.4231 13.8197 56.191 13.2617 56.4587 12.4377L58.5979 5.8541Z" fill="#FFC700"/>
<path d="M98.5979 5.8541C99.1966 4.01148 101.803 4.01148 102.402 5.8541L104.541 12.4377C104.809 13.2617 105.577 13.8197 106.443 13.8197H113.366C115.303 13.8197 116.109 16.2989 114.541 17.4377L108.941 21.5066C108.24 22.0159 107.947 22.9186 108.214 23.7426L110.354 30.3262C110.952 32.1689 108.843 33.7011 107.276 32.5623L101.676 28.4934C100.975 27.9841 100.025 27.9841 99.3244 28.4934L93.7241 32.5623C92.1567 33.7011 90.0477 32.1689 90.6464 30.3262L92.7855 23.7426C93.0533 22.9186 92.76 22.0159 92.059 21.5066L86.4587 17.4377C84.8912 16.2989 85.6968 13.8197 87.6342 13.8197H94.5566C95.4231 13.8197 96.191 13.2617 96.4587 12.4377L98.5979 5.8541Z" fill="#FFC700"/>
<path d="M138.598 5.8541C139.197 4.01148 141.803 4.01148 142.402 5.8541L144.541 12.4377C144.809 13.2617 145.577 13.8197 146.443 13.8197H153.366C155.303 13.8197 156.109 16.2989 154.541 17.4377L148.941 21.5066C148.24 22.0159 147.947 22.9186 148.214 23.7426L150.354 30.3262C150.952 32.1689 148.843 33.7011 147.276 32.5623L141.676 28.4934C140.975 27.9841 140.025 27.9841 139.324 28.4934L133.724 32.5623C132.157 33.7011 130.048 32.1689 130.646 30.3262L132.786 23.7426C133.053 22.9186 132.76 22.0159 132.059 21.5066L126.459 17.4377C124.891 16.2989 125.697 13.8197 127.634 13.8197H134.557C135.423 13.8197 136.191 13.2617 136.459 12.4377L138.598 5.8541Z" fill="#FFC700"/>
<path d="M178.598 5.8541C179.197 4.01148 181.803 4.01148 182.402 5.8541L184.541 12.4377C184.809 13.2617 185.577 13.8197 186.443 13.8197H193.366C195.303 13.8197 196.109 16.2989 194.541 17.4377L188.941 21.5066C188.24 22.0159 187.947 22.9186 188.214 23.7426L190.354 30.3262C190.952 32.1689 188.843 33.7011 187.276 32.5623L181.676 28.4934C180.975 27.9841 180.025 27.9841 179.324 28.4934L173.724 32.5623C172.157 33.7011 170.048 32.1689 170.646 30.3262L172.786 23.7426C173.053 22.9186 172.76 22.0159 172.059 21.5066L166.459 17.4377C164.891 16.2989 165.697 13.8197 167.634 13.8197H174.557C175.423 13.8197 176.191 13.2617 176.459 12.4377L178.598 5.8541Z" fill="#D9D9D9"/>
</svg>
