<svg width="198" height="71" viewBox="0 0 198 71" fill="none" xmlns="http://www.w3.org/2000/svg">
<circle cx="32" cy="35.5" r="32" fill="#69FAB4"/>
<path d="M35.7725 25.5H53V44.6225H47.2575V36.4094L42.7238 41.429C40.1252 44.3048 37.5277 47.1816 34.9312 50.0597L32.9012 52.3129L21.4162 39.5646L7.05995 55.5L3 50.9967L21.4162 30.5515L32.9012 43.2999L38.6696 36.9161L43.2205 31.8742H35.7725V25.5Z" fill="#12182B"/>
<path d="M96.74 27.112C98.156 27.376 99.32 28.084 100.232 29.236C101.144 30.388 101.6 31.708 101.6 33.196C101.6 34.54 101.264 35.728 100.592 36.76C99.944 37.768 98.996 38.56 97.748 39.136C96.5 39.712 95.024 40 93.32 40H82.484V14.872H92.852C94.556 14.872 96.02 15.148 97.244 15.7C98.492 16.252 99.428 17.02 100.052 18.004C100.7 18.988 101.024 20.104 101.024 21.352C101.024 22.816 100.628 24.04 99.836 25.024C99.068 26.008 98.036 26.704 96.74 27.112ZM87.524 25.24H92.132C93.332 25.24 94.256 24.976 94.904 24.448C95.552 23.896 95.876 23.116 95.876 22.108C95.876 21.1 95.552 20.32 94.904 19.768C94.256 19.216 93.332 18.94 92.132 18.94H87.524V25.24ZM92.6 35.896C93.824 35.896 94.772 35.608 95.444 35.032C96.14 34.456 96.488 33.64 96.488 32.584C96.488 31.504 96.128 30.664 95.408 30.064C94.688 29.44 93.716 29.128 92.492 29.128H87.524V35.896H92.6ZM112.457 23.152C113.105 22.096 113.945 21.268 114.977 20.668C116.033 20.068 117.233 19.768 118.577 19.768V25.06H117.245C115.661 25.06 114.461 25.432 113.645 26.176C112.853 26.92 112.457 28.216 112.457 30.064V40H107.417V20.056H112.457V23.152ZM122.475 29.956C122.475 27.94 122.871 26.152 123.663 24.592C124.479 23.032 125.571 21.832 126.939 20.992C128.331 20.152 129.879 19.732 131.583 19.732C133.071 19.732 134.367 20.032 135.471 20.632C136.599 21.232 137.499 21.988 138.171 22.9V20.056H143.247V40H138.171V37.084C137.523 38.02 136.623 38.8 135.471 39.424C134.343 40.024 133.035 40.324 131.547 40.324C129.867 40.324 128.331 39.892 126.939 39.028C125.571 38.164 124.479 36.952 123.663 35.392C122.871 33.808 122.475 31.996 122.475 29.956ZM138.171 30.028C138.171 28.804 137.931 27.76 137.451 26.896C136.971 26.008 136.323 25.336 135.507 24.88C134.691 24.4 133.815 24.16 132.879 24.16C131.943 24.16 131.079 24.388 130.287 24.844C129.495 25.3 128.847 25.972 128.343 26.86C127.863 27.724 127.623 28.756 127.623 29.956C127.623 31.156 127.863 32.212 128.343 33.124C128.847 34.012 129.495 34.696 130.287 35.176C131.103 35.656 131.967 35.896 132.879 35.896C133.815 35.896 134.691 35.668 135.507 35.212C136.323 34.732 136.971 34.06 137.451 33.196C137.931 32.308 138.171 31.252 138.171 30.028ZM161.022 19.768C163.398 19.768 165.318 20.524 166.782 22.036C168.246 23.524 168.978 25.612 168.978 28.3V40H163.938V28.984C163.938 27.4 163.542 26.188 162.75 25.348C161.958 24.484 160.878 24.052 159.51 24.052C158.118 24.052 157.014 24.484 156.198 25.348C155.406 26.188 155.01 27.4 155.01 28.984V40H149.97V20.056H155.01V22.54C155.682 21.676 156.534 21.004 157.566 20.524C158.622 20.02 159.774 19.768 161.022 19.768ZM174.275 29.956C174.275 27.94 174.671 26.152 175.463 24.592C176.279 23.032 177.383 21.832 178.775 20.992C180.167 20.152 181.715 19.732 183.419 19.732C184.715 19.732 185.951 20.02 187.127 20.596C188.303 21.148 189.239 21.892 189.935 22.828V13.36H195.047V40H189.935V37.048C189.311 38.032 188.435 38.824 187.307 39.424C186.179 40.024 184.871 40.324 183.383 40.324C181.703 40.324 180.167 39.892 178.775 39.028C177.383 38.164 176.279 36.952 175.463 35.392C174.671 33.808 174.275 31.996 174.275 29.956ZM189.971 30.028C189.971 28.804 189.731 27.76 189.251 26.896C188.771 26.008 188.123 25.336 187.307 24.88C186.491 24.4 185.615 24.16 184.679 24.16C183.743 24.16 182.879 24.388 182.087 24.844C181.295 25.3 180.647 25.972 180.143 26.86C179.663 27.724 179.423 28.756 179.423 29.956C179.423 31.156 179.663 32.212 180.143 33.124C180.647 34.012 181.295 34.696 182.087 35.176C182.903 35.656 183.767 35.896 184.679 35.896C185.615 35.896 186.491 35.668 187.307 35.212C188.123 34.732 188.771 34.06 189.251 33.196C189.731 32.308 189.971 31.252 189.971 30.028Z" fill="white"/>
<path d="M80.602 61.15C80.602 60.3567 80.7607 59.666 81.078 59.078C81.3953 58.4807 81.834 58.0187 82.394 57.692C82.9633 57.3653 83.612 57.202 84.34 57.202C85.2827 57.202 86.0573 57.4307 86.664 57.888C87.28 58.3453 87.686 58.98 87.882 59.792H86.51C86.3793 59.3253 86.1227 58.9567 85.74 58.686C85.3667 58.4153 84.9 58.28 84.34 58.28C83.612 58.28 83.024 58.532 82.576 59.036C82.128 59.5307 81.904 60.2353 81.904 61.15C81.904 62.074 82.128 62.788 82.576 63.292C83.024 63.796 83.612 64.048 84.34 64.048C84.9 64.048 85.3667 63.9173 85.74 63.656C86.1133 63.3947 86.37 63.0213 86.51 62.536H87.882C87.6767 63.32 87.266 63.95 86.65 64.426C86.034 64.8927 85.264 65.126 84.34 65.126C83.612 65.126 82.9633 64.9627 82.394 64.636C81.834 64.3093 81.3953 63.8473 81.078 63.25C80.7607 62.6527 80.602 61.9527 80.602 61.15ZM103.988 65.126C103.269 65.126 102.616 64.9627 102.028 64.636C101.449 64.3093 100.992 63.8473 100.656 63.25C100.329 62.6433 100.166 61.9433 100.166 61.15C100.166 60.366 100.334 59.6753 100.67 59.078C101.015 58.4713 101.482 58.0093 102.07 57.692C102.658 57.3653 103.316 57.202 104.044 57.202C104.772 57.202 105.43 57.3653 106.018 57.692C106.606 58.0093 107.068 58.4667 107.404 59.064C107.749 59.6613 107.922 60.3567 107.922 61.15C107.922 61.9433 107.745 62.6433 107.39 63.25C107.045 63.8473 106.573 64.3093 105.976 64.636C105.379 64.9627 104.716 65.126 103.988 65.126ZM103.988 64.006C104.445 64.006 104.875 63.8987 105.276 63.684C105.677 63.4693 105.999 63.1473 106.242 62.718C106.494 62.2887 106.62 61.766 106.62 61.15C106.62 60.534 106.499 60.0113 106.256 59.582C106.013 59.1527 105.696 58.8353 105.304 58.63C104.912 58.4153 104.487 58.308 104.03 58.308C103.563 58.308 103.134 58.4153 102.742 58.63C102.359 58.8353 102.051 59.1527 101.818 59.582C101.585 60.0113 101.468 60.534 101.468 61.15C101.468 61.7753 101.58 62.3027 101.804 62.732C102.037 63.1613 102.345 63.4833 102.728 63.698C103.111 63.9033 103.531 64.006 103.988 64.006ZM124.395 57.188C125.328 57.188 126.084 57.4727 126.663 58.042C127.242 58.602 127.531 59.414 127.531 60.478V65H126.271V60.66C126.271 59.8947 126.08 59.3113 125.697 58.91C125.314 58.4993 124.792 58.294 124.129 58.294C123.457 58.294 122.92 58.504 122.519 58.924C122.127 59.344 121.931 59.9553 121.931 60.758V65H120.657V57.328H121.931V58.42C122.183 58.028 122.524 57.7247 122.953 57.51C123.392 57.2953 123.872 57.188 124.395 57.188ZM143.388 65.126C142.8 65.126 142.273 65.028 141.806 64.832C141.339 64.6267 140.971 64.3467 140.7 63.992C140.429 63.628 140.28 63.2127 140.252 62.746H141.568C141.605 63.1287 141.783 63.4413 142.1 63.684C142.427 63.9267 142.851 64.048 143.374 64.048C143.859 64.048 144.242 63.9407 144.522 63.726C144.802 63.5113 144.942 63.2407 144.942 62.914C144.942 62.578 144.793 62.3307 144.494 62.172C144.195 62.004 143.733 61.8407 143.108 61.682C142.539 61.5327 142.072 61.3833 141.708 61.234C141.353 61.0753 141.045 60.8467 140.784 60.548C140.532 60.24 140.406 59.8387 140.406 59.344C140.406 58.952 140.523 58.5927 140.756 58.266C140.989 57.9393 141.321 57.6827 141.75 57.496C142.179 57.3 142.669 57.202 143.22 57.202C144.069 57.202 144.755 57.4167 145.278 57.846C145.801 58.2753 146.081 58.8633 146.118 59.61H144.844C144.816 59.2087 144.653 58.8867 144.354 58.644C144.065 58.4013 143.673 58.28 143.178 58.28C142.721 58.28 142.357 58.378 142.086 58.574C141.815 58.77 141.68 59.0267 141.68 59.344C141.68 59.596 141.759 59.806 141.918 59.974C142.086 60.1327 142.291 60.2633 142.534 60.366C142.786 60.4593 143.131 60.5667 143.57 60.688C144.121 60.8373 144.569 60.9867 144.914 61.136C145.259 61.276 145.553 61.4907 145.796 61.78C146.048 62.0693 146.179 62.4473 146.188 62.914C146.188 63.334 146.071 63.712 145.838 64.048C145.605 64.384 145.273 64.65 144.844 64.846C144.424 65.0327 143.939 65.126 143.388 65.126ZM165.851 57.328V65H164.577V63.866C164.334 64.258 163.993 64.566 163.555 64.79C163.125 65.0047 162.649 65.112 162.127 65.112C161.529 65.112 160.993 64.9907 160.517 64.748C160.041 64.496 159.663 64.1227 159.383 63.628C159.112 63.1333 158.977 62.5313 158.977 61.822V57.328H160.237V61.654C160.237 62.41 160.428 62.9933 160.811 63.404C161.193 63.8053 161.716 64.006 162.379 64.006C163.06 64.006 163.597 63.796 163.989 63.376C164.381 62.956 164.577 62.3447 164.577 61.542V57.328H165.851ZM180.336 54.64V65H179.062V54.64H180.336ZM195.121 58.378V62.9C195.121 63.2733 195.2 63.5393 195.359 63.698C195.518 63.8473 195.793 63.922 196.185 63.922H197.123V65H195.975C195.266 65 194.734 64.8367 194.379 64.51C194.024 64.1833 193.847 63.6467 193.847 62.9V58.378H192.853V57.328H193.847V55.396H195.121V57.328H197.123V58.378H195.121Z" fill="white"/>
</svg>
